Patient4_TMGait_0pt8_01_left_37_EMG.mot
version=1
nRows=33
nColumns=33
inDegrees=no
endheader
time	1LAddLong	2LGlutMax	3LGlutMed	4LIliopsoas	5LSemiMemb	6LBicFemLong	7LRecFem	8LVastMed	9LVastLat	10LGasMed	11LTibAnt	12lTibPost	13LPeroneusLong	14LSol	15LExtDigLong	16LFlexDigLong	17RAddLong	18RGlutMax	19RGlutMed	20RIliopsoas	21RSemiMemb	22RBicFemLong	23RRecFem	24RVastMed	25RVastLat	26RGasMed	27RTibAnt	28RTibPost	29RPeroneusLong	30RSol	31RExtDigLong	32RFlexDigLong
40.88	0.019226	0.19898	-0.097046	0.002899	-0.00473	-0.046844	-0.1001	0.009918	0.26947	-0.042877	-0.002747	0.016174	0.006714	0.11841	-0.12497	0.005341	-0.007019	0.21606	0.20218	0.012512	0.065613	0.22583	0.074921	0.001373	0.029449	-0.070038	-0.65491	-0.12024	0.12054	0.42709	-0.001984	-0.002441
40.881	-0.009003	0.21835	-0.086823	0.002289	-0.002747	-0.059509	-0.080719	0.009918	0.28351	-0.041199	-0.013123	0.022125	-0.007324	0.054932	-0.20844	0.018005	0.030365	0.22629	-0.074005	-0.012817	-0.010834	0.066528	-0.072784	-0.11978	-0.11398	0.038147	-0.96893	0.060577	0.15488	0.5986	-0.007782	0.005493
40.882	0.02533	0.20859	-0.11475	0.009766	-0.002747	-0.056305	-0.067596	0.001678	0.29144	-0.019073	0.13931	0.012512	-0.062866	0.068207	-0.11566	0.022736	0.064392	0.2887	-0.013733	-0.1297	0.030975	0.006714	0.030975	-0.21988	-0.13779	0.13825	-1.2692	0.07019	0.2771	0.66315	-0.000305	0.002594
40.883	0.01358	0.21942	-0.09552	0.014038	0.018463	-0.065613	-0.094757	0.007477	0.29022	-0.039063	0.17853	0.005951	-0.049591	0.1088	0.002289	0.014191	0.010681	0.23987	0.093231	-0.089417	-0.13351	0.14511	0.30807	-0.1976	-0.10086	0.10666	-0.12985	0.16174	0.35095	-0.013428	-0.001678	0.011292
40.884	0.014038	0.19318	-0.063477	0.016785	-0.00473	-0.063782	-0.06546	0.002289	0.3038	-0.050659	0.062561	0.018616	-0.014343	0.071564	0.065155	0.010834	-0.070953	0.19714	-0.16342	-0.036621	-0.3598	0.26337	0.46036	-0.053101	-0.015717	0.03952	0.90286	0.018463	0.2742	0.77103	-0.009155	0.015564
40.885	0.006714	0.18234	-0.081635	0.013275	0.000305	-0.078735	-0.082245	0.003052	0.3096	-0.05661	-0.021667	0.000916	0.00351	-0.10208	0.092163	0.011292	-0.050659	0.13886	-0.072021	-0.000763	-0.1535	0.15549	0.32837	0.11658	0.008698	0.006714	0.61539	-0.11078	0.040436	1.2201	-0.010071	0.015106
40.886	0.010223	0.18616	-0.093536	0.003967	0	-0.061188	-0.079041	-0.001678	0.3096	-0.051727	-0.05188	0.016174	0.04303	-0.064087	0.01358	0.00824	-0.017242	0.048676	-0.037384	0.008698	0.001678	0.022125	0.19592	0.03891	0.056305	0.019531	-0.001221	0.048218	-0.018463	0.24063	-0.009155	0.007477
40.887	0.00473	0.14725	-0.13077	0.01297	-0.010071	-0.066986	-0.093994	0.003967	0.31326	-0.044861	-0.038605	0.019836	0.065308	0.010834	0.002594	0.013733	-0.021057	-0.002136	-0.15076	-0.002441	0.06073	0.034332	-0.1236	-0.026855	0.077057	0.041046	-0.13275	0.001526	-0.093384	0.16205	-0.005188	0.001984
40.888	0.019379	0.14343	-0.097198	0.013123	-0.005035	-0.065765	-0.072479	0.007477	0.31128	-0.010376	-0.10254	0.01709	0.068817	-0.11017	0.001984	0.014954	-0.014496	-0.13138	0.076904	0.036163	-0.023041	0.037231	-0.20859	-0.072021	0.092163	0.035248	-0.009613	0.007935	0.057678	0.092163	-0.003967	0.003052
40.889	0.004272	0.13947	-0.014496	-0.003052	-0.004425	-0.078735	-0.056	0.005798	0.3125	-0.017395	-0.095825	0.024567	0.089264	-0.021362	0.067444	0.019379	-0.009003	-0.12985	0.13657	0.087738	-0.041199	-0.019836	-0.22751	-0.075989	0.13763	0.025177	-0.071259	-0.020294	0.07782	-0.099487	-0.001221	-0.000458
40.89	0.005341	0.12634	0.01709	-0.01358	-0.010986	-0.078583	-0.070953	0.001526	0.31082	-0.024414	-0.084534	0.009003	0.10529	-0.088806	0.27313	0.022583	0.006866	-0.18463	0.17425	0.00351	0.012817	-0.090027	0.003204	-0.20065	0.018158	0.035858	-0.32654	0.03067	0.059357	0.35873	-0.003052	-0.005341
40.891	0.017853	0.090637	-0.025024	0.005341	-0.005951	-0.093079	-0.073395	0.004272	0.31525	-0.051422	-0.088196	0.024414	0.076904	-0.11475	0.35431	0.016785	-0.006104	-0.22858	0.016937	-0.035248	0.066223	-0.12619	-0.17029	-0.087433	0.028687	0.019684	-0.29892	0.028534	0.007935	0.44601	0.00061	-0.006561
40.892	0.018616	-0.023804	-0.065002	0.005188	-0.003357	-0.056915	-0.074463	-0.001221	0.30487	-0.058289	-0.02121	0.017853	0.014801	-0.061951	0.23315	0.023346	-0.015106	-0.22461	-0.15106	0.016785	0.058441	-0.084686	-0.52231	0.018005	0.17761	-0.05127	0.019989	0.002136	-0.112	-0.037842	-0.001678	-0.007782
40.893	0.019531	-0.12909	-0.039673	-0.006561	0.002899	-0.10391	-0.05249	-0.000153	0.29862	-0.03418	0.080566	0.010529	-0.02533	-0.083466	-0.10666	0.014648	-0.02243	-0.19791	-0.35126	0.052032	0.017242	-0.048676	-0.45975	0.001984	0.20309	-0.062103	0.20142	-0.11643	-0.27344	-0.32761	-0.001526	-0.01236
40.894	0.015717	-0.14847	-0.083923	0.010681	-0.005798	-0.11551	-0.048981	0.00412	0.30258	-0.028687	0.13321	0.018005	-0.031281	-0.079041	-0.22736	0.007935	0.000458	-0.20172	-0.2623	0.050201	-0.030823	-0.058136	-0.37552	0.071106	0.17838	-0.080414	0.48401	0.094147	-0.29709	-0.29053	0.002136	-0.011749
40.895	0.012512	-0.15915	-0.14282	0.005341	-0.009155	-0.13596	-0.062561	-0.001678	0.29938	-0.061493	0.066681	0.018158	-0.031128	-0.009155	-0.17868	0.010071	0.003357	-0.27344	-0.18555	0.048828	-0.075226	-0.057983	-0.401	0.072479	0.29419	0.004425	0.73059	0.11139	-0.26199	-0.17731	-0.00061	-0.014496
40.896	0.020294	-0.11658	-0.1561	0.001221	-0.003967	-0.12573	-0.045776	-0.001526	0.29678	-0.079956	-0.003815	0.00473	0.074921	-0.085907	-0.17914	-0.00946	0.020599	-0.23819	-0.21759	0.045166	-0.093994	-0.017548	-0.18326	-0.014343	0.24429	0.027161	1.0034	0.050507	-0.23712	-0.15121	-0.002747	-0.01236
40.897	0.018921	-0.050354	-0.15366	0.009918	0.000916	-0.14221	-0.050507	0.00473	0.29037	-0.007629	-0.010681	0.021515	0.11353	-0.096436	-0.099792	-0.006256	0.025177	-0.13733	0.21683	-0.001221	-0.085754	-0.016479	-0.019836	-0.049286	0.13977	0.014648	0.70801	-0.003357	-0.38528	-0.054321	-0.002441	-0.00824
40.898	0.00946	0.026093	-0.10925	0.00885	-0.00351	-0.13138	-0.046234	0	0.28168	-0.000458	0.022736	0.014954	0.088806	-0.036469	-0.023499	-0.002136	0.002136	-0.11215	0.42847	-0.007324	0.12192	0.045013	-0.015869	-0.076447	0.062103	-0.006256	0.66376	-0.015564	-0.37003	-0.26047	0.002899	-0.009918
40.899	0.002899	0.12085	-0.044556	0.019836	0.002594	-0.14175	-0.035248	0.007324	0.28595	0.002747	-0.023651	0.01709	0.091095	-0.10696	-0.080566	0.007782	0.00885	-0.060272	0.50247	-0.027771	0.13031	0.042572	-0.15243	0.003815	0.056458	-0.000916	0.35049	-0.036621	-0.30716	-0.44846	-0.002747	0.005493
40.9	0.001068	0.14221	0.010071	-0.002899	-0.005035	-0.14023	0.010223	0.003204	0.28931	0.01297	-0.019379	0.020905	0.13367	-0.16571	-0.10361	0.005341	0.014038	0.001678	0.56305	0.008392	-0.021515	0.058136	-0.13626	0.054016	0.13229	-0.002747	-0.54993	-0.036926	-0.1178	-0.35385	-0.001678	-0.004272
40.901	0.002441	0.19486	-0.030823	-0.000916	-0.026245	-0.12619	0.061646	-0.000916	0.28854	0.011292	0.002899	0.019073	0.14069	0.023193	-0.02121	0.011597	0.01236	0.043488	0.23621	0.01297	-0.40253	0.020599	-0.035553	0.016022	0.093842	-0.014648	-0.86014	-0.004272	-0.071869	-0.30075	0.004425	0.000305
40.902	0.004272	0.21561	-0.011444	0.008545	0.002899	-0.11383	0.04776	0.000763	0.27756	0.01297	0.048218	0.022278	0.052643	0.036469	-0.007019	0.017242	0.02594	-0.016174	-0.13901	-0.007324	-0.27023	-0.061951	0.07843	-0.041504	0.017548	-0.044403	0.1442	-0.010529	-0.070343	-0.21423	-0.001526	-0.007324
40.903	0.003204	0.25971	-0.052185	0.010986	-0.010834	-0.12405	0.001984	-0.008698	0.27405	0.009308	0.042725	0.004425	0.052643	0.06897	-0.016022	-0.002594	0.048828	-0.14038	-0.077667	0.013428	0.19455	0.01709	0.19363	-0.099335	0.022888	-0.083618	0.89661	-0.015564	-0.009308	-0.17609	-0.003357	0.001678
40.904	0.00946	0.28839	-0.06958	0.017395	-0.000153	-0.10193	0.005035	0.001373	0.26123	0.019379	0.059204	0.010223	0.047302	0.11032	0.034332	0.001068	0.037842	-0.22659	-0.29327	0.00824	0.34576	0.075073	0.22858	-0.16556	-0.033722	-0.11826	1.1752	-0.013885	-0.069733	-0.17838	-0.002441	0.00061
40.905	0.009918	0.34943	-0.02655	0.01709	-0.000458	-0.078735	-0.031891	-0.005341	0.2504	0.0354	-0.017548	0.010834	0.08316	-0.050354	0.054932	-0.003662	0.017548	-0.29846	-0.028687	-0.005493	0.080261	0.051727	-0.12528	-0.13001	-0.083923	-0.14618	1.2024	-0.015869	-0.26611	-0.10651	-0.002289	-0.005493
40.906	0.026703	0.42694	-0.029907	0.024414	-0.000916	-0.069427	-0.070648	0.001221	0.23102	0.017395	0.027313	0.005493	0.073547	-0.21851	0.050812	-0.001373	-0.081635	-0.32776	0.10254	-0.094147	-0.20218	0.21942	-0.27939	-0.044403	0.033722	-0.11841	0.20554	-0.016785	-0.25345	-0.10849	-0.004272	-0.016785
40.907	0.012207	0.45639	-0.010986	0.02655	-0.006104	-0.053253	-0.097504	0.001068	0.22263	-0.005035	-0.042725	0.01358	0.022736	-0.27313	0.058594	-0.007935	-0.069885	-0.4042	0.065155	-0.14374	-0.19302	0.16571	-0.14313	-0.028839	0.021515	0.067291	-1.8408	0.011139	-0.05188	-0.2861	-0.004883	-0.007629
40.908	0.014954	0.47714	-0.022736	0.013275	0	-0.039368	-0.11169	-0.005035	0.22354	-0.020905	-0.014496	0.018463	0.004578	-0.3241	0.05722	-0.001984	-0.032654	-0.40329	-0.11337	-0.11688	0.00061	-0.1001	-0.20355	-0.001984	-0.02121	0.11856	-2.2961	-0.000458	0.3421	-0.61325	-0.003357	-0.007019
40.909	0.010986	0.52338	-0.037994	0.001526	-0.005341	-0.04425	-0.097351	0.003357	0.2124	-0.020142	0.009308	0.010986	-0.005646	-0.33905	0.057678	-0.005646	0.000916	-0.34607	0.017853	-0.007935	-0.099335	-0.087433	-0.08316	0.039215	-0.014954	0.12558	-1.7076	-0.015869	0.47455	-0.76538	-0.002594	-0.019989
40.91	0.012054	0.54474	-0.053864	0.009766	0.005188	-0.027618	-0.069122	0.006256	0.19928	-0.019684	0.06485	0.020142	-0.03067	-0.31357	0.059814	-0.002594	-0.036316	-0.34515	0.12665	0.091705	-0.062408	-0.066986	-0.22659	0.21027	0.11871	0.066223	-0.82825	-0.014343	0.25101	-0.28183	-0.000763	-0.021667
40.911	0.013123	0.54535	-0.079803	-0.019531	-0.003967	-0.018158	-0.045776	0.002441	0.20996	-0.033417	0.040436	-0.00061	-0.009918	-0.059814	-0.011902	0.005035	-0.020752	-0.35339	0.15472	0.21622	-0.015106	-0.28122	-0.15732	0.18784	0.17654	0.007477	-0.11597	-0.01236	-0.066833	0.34317	-0.006714	-0.013123
40.912	-0.001221	0.5661	-0.037537	0	0.004272	-0.010223	-0.022125	0.002441	0.20462	-0.060577	-0.021515	0.004578	0.039368	0.06546	0.02655	-0.012054	0.003052	-0.33844	0.1976	0.3122	0.010681	-0.22446	-0.070953	0.12192	0.13077	0.015106	-0.28564	-0.007629	-0.053253	0.40955	-0.001526	-0.01709
